M48
; DRILL file KiCad 10.0.5-unknown-202607221313~667fa36054~ubuntu25.10.1 date 2026-09-19T03:05:53
; FORMAT={3:3/ absolute / metric / suppress leading zeros}
; #@! TF.CreationDate,2026-09-19T03:05:53+00:00
; #@! TF.GenerationSoftware,Kicad,Pcbnew,10.0.5-unknown-202607221313~667fa36054~ubuntu25.10.1
; #@! TF.FileFunction,Plated,1,2,PTH
FMAT,2
METRIC,TZ
; #@! TA.AperFunction,Plated,PTH,ViaDrill
T1C0.300
; #@! TA.AperFunction,Plated,PTH,ComponentDrill
T2C0.800
; #@! TA.AperFunction,Plated,PTH,ComponentDrill
T3C0.889
; #@! TA.AperFunction,Plated,PTH,ComponentDrill
T4C0.890
; #@! TA.AperFunction,Plated,PTH,ComponentDrill
T5C1.000
; #@! TA.AperFunction,Plated,PTH,ComponentDrill
T6C1.240
; #@! TA.AperFunction,Plated,PTH,ComponentDrill
T7C1.400
; #@! TA.AperFunction,Plated,PTH,ComponentDrill
T8C1.570
; #@! TA.AperFunction,Plated,PTH,ComponentDrill
T9C3.000
%
G90
G05
T1
X-32500Y31200
X-32258Y110236
X-30900Y42600
X-27800Y96500
X-27800Y91000
X-27800Y74100
X-27200Y80500
X-26300Y87700
X-25700Y67200
X-25200Y81900
X-23200Y70900
X-23100Y97200
X-22900Y89800
X-22500Y61000
X-21100Y74800
X-19200Y68600
X-18600Y96500
X-17600Y73200
X-17600Y62300
X-17600Y52100
X-17200Y87800
X-16700Y108900
X-16600Y5500
X-16200Y106300
X-15900Y60400
X-15800Y64400
X-15800Y57300
X-15600Y14900
X-15200Y28700
X-14100Y25300
X-14000Y58900
X-13400Y28100
X-13200Y60200
X-12200Y1700
X-12000Y8900
X-11300Y64600
X-11100Y38000
X-11100Y33400
X-10600Y59200
X-9700Y68700
X-9600Y73200
X-9400Y79500
X-9400Y33200
X-8300Y33500
X-8200Y39300
X-7600Y29300
X-7274Y91300
X-7200Y27800
X-7000Y32800
X-6200Y58800
X-4200Y26300
X-4000Y28900
X-3700Y66000
X-2000Y32500
X800Y33100
X1600Y78500
X1626Y87700
X3100Y92600
X3100Y90100
X4700Y74900
X6300Y113600
X6500Y108500
X6500Y106900
X6500Y105100
X6600Y103400
X9200Y12671
X9400Y108900
X9400Y107200
X9500Y113600
X9800Y12671
X10400Y12671
X11300Y38200
X11700Y44000
X12192Y46228
X12192Y42418
X13300Y64300
X13400Y38000
X13500Y33100
X13926Y96600
X14226Y102100
X14300Y16400
X15426Y92600
X15494Y43434
X15800Y24900
X15800Y20400
X16300Y68200
X16606Y95080
X17500Y26800
X17526Y90400
X17800Y19600
X18700Y21000
X19326Y107200
X19600Y14700
X19700Y25000
X19700Y20300
X22400Y11900
X22926Y111700
X23326Y92500
X23526Y104200
X24100Y18600
X24400Y38000
X24500Y33100
X24500Y11900
X24900Y78300
X26000Y81900
X26526Y92663
X26605Y95079
X26900Y20800
X27900Y24800
X29000Y15600
X30100Y19400
X30988Y42672
X31300Y13900
X31600Y73400
X32000Y26900
X32200Y19400
X32726Y87800
X33400Y29200
X33450Y14150
X34800Y24800
X35200Y19400
X35400Y38000
X35400Y33100
X35700Y24300
T2
X10126Y81700
X13626Y81700
T3
X-12214Y100160
X-12214Y97620
X-12214Y95080
X-12214Y92540
X-12214Y90000
X-9674Y100160
X-9674Y97620
X-9674Y95080
X-9674Y92540
X-9674Y90000
X-5114Y100200
X-5114Y97600
X-5114Y92500
X-5114Y90000
X-2574Y100200
X-2574Y97600
X-2574Y92500
X-2574Y90000
X18100Y47340
X18100Y44800
T4
X12330Y14700
X14620Y14700
X15638Y9880
X16654Y8100
X17670Y9880
X18686Y8100
X19702Y9880
X20718Y8100
X21734Y9880
X22750Y8100
X23760Y14700
X26050Y14700
T5
X-33575Y113460
X-33575Y110920
X-33575Y108380
X-33575Y105840
X-33575Y103300
X-33575Y100760
X-33575Y98220
X-33575Y95680
X-33575Y93140
X-33575Y90600
X-33575Y88060
X-33575Y85520
X-33575Y82980
X-33575Y80440
X-33575Y77900
X-33575Y75360
X-33575Y72820
X-33575Y70280
X-33575Y67740
X-33575Y65200
X-31035Y113460
X-31035Y110920
X-31035Y108380
X-31035Y105840
X-31035Y103300
X-31035Y100760
X-31035Y98220
X-31035Y95680
X-31035Y93140
X-31035Y90600
X-31035Y88060
X-31035Y85520
X-31035Y82980
X-31035Y80440
X-31035Y77900
X-31035Y75360
X-31035Y72820
X-31035Y70280
X-31035Y67740
X-31035Y65200
X13640Y116900
X13640Y114360
X16180Y116900
X16180Y114360
X18720Y114360
X18720Y116900
X21260Y116900
X21260Y114360
X21400Y49880
X21400Y47340
X21400Y44800
X23800Y116900
X23800Y114360
T6
X-18217Y26300
X-18217Y18680
X-18217Y13600
X2103Y26300
X2103Y16140
X2103Y5980
T7
X-28700Y23900
X-28700Y20000
T8
X11060Y8990
X27320Y8990
T9
X-40925Y12800
X-18100Y114500
X41525Y88150
X41525Y18050
T5
G00X-32858Y9800
M15
G01X-32858Y11800
M16
G05
G00X-29158Y13800
M15
G01X-27158Y13800
M16
G05
G00X-29158Y7800
M15
G01X-27158Y7800
M16
G05
M30
