%TF.GenerationSoftware,KiCad,Pcbnew,10.0.5-unknown-202607221313~667fa36054~ubuntu25.10.1*%
%TF.CreationDate,2026-09-19T03:05:52+00:00*%
%TF.ProjectId,RETERMINT01,52455445-524d-4494-9e54-30312e6b6963,rev?*%
%TF.SameCoordinates,Original*%
%TF.FileFunction,Soldermask,Bot*%
%TF.FilePolarity,Negative*%
%FSLAX46Y46*%
G04 Gerber Fmt 4.6, Leading zero omitted, Abs format (unit mm)*
G04 Created by KiCad (PCBNEW 10.0.5-unknown-202607221313~667fa36054~ubuntu25.10.1) date 2026-09-19 03:05:52*
%MOMM*%
%LPD*%
G01*
G04 APERTURE LIST*
G04 Aperture macros list*
%AMRoundRect*
0 Rectangle with rounded corners*
0 $1 Rounding radius*
0 $2 $3 $4 $5 $6 $7 $8 $9 X,Y pos of 4 corners*
0 Add a 4 corners polygon primitive as box body*
4,1,4,$2,$3,$4,$5,$6,$7,$8,$9,$2,$3,0*
0 Add four circle primitives for the rounded corners*
1,1,$1+$1,$2,$3*
1,1,$1+$1,$4,$5*
1,1,$1+$1,$6,$7*
1,1,$1+$1,$8,$9*
0 Add four rect primitives between the rounded corners*
20,1,$1+$1,$2,$3,$4,$5,0*
20,1,$1+$1,$4,$5,$6,$7,0*
20,1,$1+$1,$6,$7,$8,$9,0*
20,1,$1+$1,$8,$9,$2,$3,0*%
G04 Aperture macros list end*
%ADD10R,1.524000X1.524000*%
%ADD11C,2.600000*%
%ADD12RoundRect,0.250000X0.550000X0.550000X-0.550000X0.550000X-0.550000X-0.550000X0.550000X-0.550000X0*%
%ADD13C,1.600000*%
%ADD14C,3.250000*%
%ADD15R,1.500000X1.500000*%
%ADD16C,1.500000*%
%ADD17C,2.300000*%
%ADD18R,1.700000X1.700000*%
%ADD19C,1.700000*%
%ADD20C,6.000000*%
%ADD21RoundRect,0.500000X0.500000X-0.500000X0.500000X0.500000X-0.500000X0.500000X-0.500000X-0.500000X0*%
%ADD22C,2.000000*%
%ADD23R,3.500000X3.500000*%
%ADD24RoundRect,0.750000X1.000000X-0.750000X1.000000X0.750000X-1.000000X0.750000X-1.000000X-0.750000X0*%
%ADD25RoundRect,0.875000X0.875000X-0.875000X0.875000X0.875000X-0.875000X0.875000X-0.875000X-0.875000X0*%
G04 APERTURE END LIST*
D10*
%TO.C,J4*%
X-5114172Y92500000D03*
X-2574172Y92500000D03*
%TD*%
D11*
%TO.C,TP2*%
X-28700000Y20000000D03*
%TD*%
D12*
%TO.C,C1*%
X13625828Y81700000D03*
D13*
X10125828Y81700000D03*
%TD*%
D14*
%TO.C,J11*%
X25540000Y5560000D03*
X12840000Y5560000D03*
D15*
X22750000Y8100000D03*
D16*
X21734000Y9880001D03*
X20718000Y8100000D03*
X19702000Y9880001D03*
X18686000Y8100000D03*
X17670000Y9880001D03*
X16654000Y8100000D03*
X15638001Y9880000D03*
X26050000Y14700000D03*
X23760000Y14700000D03*
X14620000Y14700000D03*
X12330000Y14700000D03*
D17*
X27320000Y8990000D03*
X11060000Y8990000D03*
%TD*%
D10*
%TO.C,J6*%
X-5114172Y100200000D03*
X-2574172Y100200000D03*
%TD*%
D18*
%TO.C,J10*%
X-33575000Y113460000D03*
D19*
X-31035000Y113460000D03*
X-33575000Y110920000D03*
X-31035000Y110920000D03*
X-33575000Y108380000D03*
X-31035000Y108380000D03*
X-33575000Y105840000D03*
X-31035000Y105840000D03*
X-33575000Y103300000D03*
X-31035000Y103300000D03*
X-33575000Y100760000D03*
X-31035000Y100760000D03*
X-33575000Y98220000D03*
X-31035000Y98220000D03*
X-33575000Y95680000D03*
X-31035000Y95680000D03*
X-33575000Y93140000D03*
X-31035000Y93140000D03*
X-33575000Y90600000D03*
X-31035000Y90600000D03*
X-33575000Y88060000D03*
X-31035000Y88060000D03*
X-33575000Y85520000D03*
X-31035000Y85520000D03*
X-33575000Y82980000D03*
X-31035000Y82980000D03*
X-33575000Y80440000D03*
X-31035000Y80440000D03*
X-33575000Y77900000D03*
X-31035000Y77900000D03*
X-33575000Y75360000D03*
X-31035000Y75360000D03*
X-33575000Y72820000D03*
X-31035000Y72820000D03*
X-33575000Y70280000D03*
X-31035000Y70280000D03*
X-33575000Y67740000D03*
X-31035000Y67740000D03*
X-33575000Y65200000D03*
X-31035000Y65200000D03*
%TD*%
D10*
%TO.C,J7*%
X-5114172Y97600000D03*
X-2574172Y97600000D03*
%TD*%
%TO.C,J5*%
X-5114172Y90000000D03*
X-2574172Y90000000D03*
%TD*%
%TO.C,J9*%
X18100000Y44800000D03*
X18100000Y47340002D03*
%TD*%
D18*
%TO.C,JP3*%
X21400000Y44800000D03*
D19*
X21400000Y47340000D03*
X21400000Y49879999D03*
%TD*%
D20*
%TO.C,M1*%
X-40925000Y12800000D03*
%TD*%
%TO.C,M3*%
X41525000Y88150000D03*
%TD*%
%TO.C,M2*%
X41525000Y18050000D03*
%TD*%
D10*
%TO.C,J3*%
X-12214172Y100160000D03*
X-9674172Y100160000D03*
X-12214172Y97620000D03*
X-9674172Y97620000D03*
X-12214172Y95080000D03*
X-9674172Y95080000D03*
X-12214172Y92540000D03*
X-9674172Y92540000D03*
X-12214172Y90000000D03*
X-9674172Y90000000D03*
%TD*%
D18*
%TO.C,J1*%
X23800000Y116900000D03*
D19*
X23800000Y114360000D03*
X21260000Y116900000D03*
X21260000Y114360000D03*
X18720001Y116900000D03*
X18720000Y114360000D03*
X16180000Y116900000D03*
X16180000Y114360000D03*
X13640000Y116900000D03*
X13640000Y114360000D03*
%TD*%
D11*
%TO.C,TP1*%
X-28700000Y23900000D03*
%TD*%
D21*
%TO.C,PS1*%
X-18217500Y13600000D03*
D22*
X-18217500Y18679999D03*
X2102500Y5980000D03*
X2102500Y16140000D03*
X2102500Y26300000D03*
X-18217500Y26300000D03*
%TD*%
D20*
%TO.C,M4*%
X-18100000Y114500000D03*
%TD*%
D23*
%TO.C,J2*%
X-28157500Y13800000D03*
D24*
X-28157500Y7800000D03*
D25*
X-32857500Y10800000D03*
%TD*%
M02*
